<?xml version="1.0" standalone="no"?>
<!DOCTYPE svg PUBLIC "-//W3C//DTD SVG 20010904//EN"
 "http://www.w3.org/TR/2001/REC-SVG-20010904/DTD/svg10.dtd">
<svg version="1.0" xmlns="http://www.w3.org/2000/svg"
 width="512.000000pt" height="512.000000pt" viewBox="0 0 512.000000 512.000000"
 preserveAspectRatio="xMidYMid meet">
<metadata>
Created by potrace 1.11, written by Peter Selinger 2001-2013
</metadata>
<g transform="translate(0.000000,512.000000) scale(0.100000,-0.100000)"
fill="#000000" stroke="none">
<path d="M2355 5109 c-893 -72 -1689 -612 -2084 -1413 -184 -372 -265 -720
-265 -1136 0 -417 81 -764 266 -1138 348 -705 1019 -1218 1793 -1371 173 -34
294 -45 495 -45 416 0 764 81 1136 265 643 317 1124 895 1323 1590 68 237 95
434 95 699 0 416 -81 764 -265 1136 -460 933 -1455 1497 -2494 1413z m2005
-2119 l0 -940 -1795 0 -1795 0 0 940 0 940 1795 0 1795 0 0 -940z m140 -1343
c0 -222 -1 -235 -23 -277 -16 -33 -34 -51 -67 -67 l-44 -23 -643 0 c-574 0
-643 -2 -643 -16 0 -14 64 -398 76 -456 5 -28 7 -28 80 -28 l74 0 0 -40 0 -40
-745 0 -745 0 0 40 0 39 82 3 82 3 38 220 c20 121 39 232 42 247 l5 28 -668 2
-668 3 -37 29 c-62 47 -66 66 -66 331 l0 235 1935 0 1935 0 0 -233z"/>
<path d="M2525 1658 c-32 -17 -45 -39 -45 -75 0 -85 117 -116 155 -42 22 42
18 67 -14 100 -31 30 -62 36 -96 17z"/>
</g>
</svg>
